<svg viewBox="0 0 1024 512" xmlns="http://www.w3.org/2000/svg" role="img" aria-labelledby="title desc">
  <title id="title">Discussed logo</title>
  <desc id="desc">Final combination mark with the icon acting as the D in Discussed.</desc>
  <g id="icon">
    <ellipse cx="154" cy="234" rx="62" ry="42" fill="#DDBE87"/>
    <ellipse cx="258" cy="152" rx="58" ry="36" fill="#F56B14" transform="rotate(-24 258 152)"/>
    <ellipse cx="266" cy="310" rx="60" ry="38" fill="#F05A24" transform="rotate(24 266 310)"/>
    <path d="M220 190v84h14c23 0 39-4 52-12 14-9 21-19 21-32s-7-23-21-32c-13-8-29-12-52-12h-14Z" fill="none" stroke="#524744" stroke-width="28" stroke-linecap="round" stroke-linejoin="miter"/>
    <path d="M268 202l6 13 13 6-13 6-6 13-6-13-13-6 13-6 6-13Z" fill="#DDBE87"/>
  </g>
  <g id="wordmark">
    <text x="325" y="272" fill="#524744" font-family="Segoe UI Variable, Segoe UI, Arial, sans-serif" font-size="118" font-weight="700" letter-spacing="-4">iscussed</text>
  </g>
</svg>
